<svg id="svg" version="1.1" xmlns="http://www.w3.org/2000/svg" xmlns:xlink="http://www.w3.org/1999/xlink" width="400" height="35.18207282913165" viewBox="0, 0, 400,35.18207282913165"><g id="svgg"><path id="path0" d="M13.585 0.367 C 13.036 0.455,12.548 0.585,12.502 0.656 C 12.455 0.727,12.023 0.878,11.542 0.992 C 11.060 1.107,10.667 1.259,10.667 1.331 C 10.667 1.404,10.414 1.510,10.105 1.568 C 9.796 1.626,9.372 1.822,9.163 2.004 C 8.953 2.185,8.687 2.333,8.570 2.333 C 8.453 2.333,8.258 2.427,8.137 2.542 C 8.016 2.656,7.585 2.975,7.180 3.250 C 6.775 3.525,6.195 3.975,5.892 4.250 C 5.588 4.525,5.118 4.938,4.848 5.167 C 4.577 5.396,4.350 5.673,4.344 5.782 C 4.338 5.892,4.202 6.079,4.042 6.199 C 3.660 6.484,2.833 7.594,2.833 7.822 C 2.833 7.920,2.762 8.000,2.676 8.000 C 2.589 8.000,2.407 8.206,2.271 8.458 C 1.622 9.658,1.010 10.987,0.902 11.429 C 0.836 11.697,0.722 11.957,0.648 12.005 C -0.162 12.543,-0.165 22.776,0.645 23.328 C 0.716 23.377,0.876 23.792,1.000 24.250 C 1.124 24.708,1.270 25.121,1.324 25.167 C 1.379 25.212,1.519 25.468,1.637 25.734 C 1.836 26.187,2.868 27.827,3.246 28.293 C 4.010 29.232,4.341 29.604,4.956 30.215 C 5.345 30.601,5.827 31.067,6.029 31.250 C 6.654 31.818,8.406 32.998,8.625 32.999 C 8.740 33.000,8.833 33.070,8.833 33.156 C 8.833 33.242,9.096 33.407,9.417 33.523 C 9.737 33.639,10.000 33.779,10.000 33.835 C 10.000 33.891,10.394 34.037,10.875 34.159 C 11.356 34.281,11.790 34.442,11.839 34.517 C 12.264 35.167,12.220 35.167,74.750 35.167 C 137.274 35.167,137.235 35.167,137.661 34.517 C 137.710 34.443,138.144 34.288,138.625 34.174 C 139.106 34.060,139.500 33.911,139.500 33.843 C 139.500 33.776,139.800 33.621,140.167 33.500 C 140.533 33.379,140.833 33.222,140.833 33.152 C 140.833 33.082,141.040 32.920,141.292 32.793 C 142.470 32.198,143.019 31.753,144.847 29.917 C 146.216 28.541,146.339 28.395,146.666 27.745 C 146.804 27.473,147.010 27.190,147.125 27.117 C 147.239 27.043,147.333 26.880,147.333 26.754 C 147.333 26.627,147.435 26.423,147.558 26.299 C 147.682 26.175,147.881 25.778,148.000 25.417 C 148.119 25.055,148.311 24.665,148.427 24.550 C 148.542 24.434,148.687 24.038,148.749 23.670 C 148.812 23.301,148.916 23.000,148.981 23.000 C 149.132 23.000,149.500 20.869,149.500 19.997 C 149.500 19.632,149.575 19.333,149.667 19.333 C 149.767 19.333,149.833 18.667,149.833 17.667 C 149.833 16.667,149.767 16.000,149.667 16.000 C 149.575 16.000,149.500 15.675,149.500 15.278 C 149.500 14.455,149.168 12.625,148.996 12.500 C 148.933 12.454,148.788 12.023,148.674 11.542 C 148.560 11.060,148.411 10.667,148.343 10.667 C 148.275 10.667,148.130 10.367,148.020 10.000 C 147.910 9.633,147.754 9.333,147.673 9.333 C 147.593 9.333,147.476 9.103,147.414 8.822 C 147.352 8.541,147.196 8.270,147.068 8.221 C 146.939 8.171,146.833 8.042,146.833 7.934 C 146.833 7.826,146.611 7.478,146.340 7.160 C 146.069 6.843,145.844 6.525,145.840 6.453 C 145.831 6.287,143.684 4.167,143.524 4.167 C 143.458 4.167,143.072 3.867,142.667 3.500 C 142.262 3.133,141.833 2.833,141.715 2.833 C 141.597 2.833,141.500 2.772,141.500 2.698 C 141.500 2.623,141.237 2.459,140.917 2.333 C 140.596 2.207,140.333 2.046,140.333 1.976 C 140.333 1.905,140.033 1.757,139.667 1.647 C 139.300 1.537,139.000 1.394,139.000 1.330 C 139.000 1.265,138.550 1.117,138.000 1.000 C 137.450 0.883,137.000 0.732,137.000 0.664 C 137.000 0.166,16.647 -0.124,13.585 0.367 M136.176 1.858 C 152.620 6.881,152.431 28.643,135.900 33.621 C 134.662 33.993,17.892 34.191,15.102 33.825 C 6.360 32.679,0.052 24.212,1.320 15.324 C 2.326 8.262,8.032 2.567,15.161 1.509 C 15.668 1.434,42.783 1.383,75.417 1.397 L 134.750 1.422 136.176 1.858 M11.333 17.667 L 11.333 30.167 14.417 30.167 L 17.500 30.167 17.500 24.833 L 17.500 19.500 23.333 19.500 L 29.167 19.500 29.167 24.833 L 29.167 30.167 32.250 30.167 L 35.333 30.167 35.333 18.000 C 35.333 11.308,35.395 5.833,35.471 5.833 C 35.546 5.833,35.888 6.227,36.230 6.708 C 37.640 8.692,41.015 13.472,41.530 14.214 C 41.834 14.652,42.533 15.644,43.083 16.418 C 43.633 17.192,44.477 18.379,44.958 19.056 L 45.833 20.288 45.833 25.227 L 45.833 30.167 49.167 30.167 L 52.500 30.167 52.500 25.204 L 52.500 20.241 53.325 19.079 C 53.779 18.440,54.585 17.298,55.117 16.542 C 55.648 15.786,56.467 14.623,56.936 13.959 C 58.598 11.604,61.326 7.737,61.991 6.792 C 62.362 6.265,62.741 5.833,62.833 5.833 C 62.943 5.833,63.000 9.982,63.000 18.005 L 63.000 30.176 73.375 30.130 L 83.750 30.083 84.543 29.610 C 86.957 28.169,87.022 27.835,86.964 17.312 L 86.917 8.750 86.450 7.799 C 85.916 6.712,85.115 6.005,83.854 5.508 C 82.996 5.170,82.774 5.165,69.303 5.207 L 55.623 5.250 53.305 8.667 C 52.030 10.546,50.600 12.665,50.127 13.375 C 49.654 14.085,49.218 14.667,49.159 14.667 C 49.100 14.667,48.280 13.523,47.338 12.125 C 46.396 10.727,44.948 8.590,44.120 7.375 L 42.615 5.167 35.893 5.167 L 29.171 5.167 29.127 10.542 L 29.083 15.917 23.333 15.917 L 17.583 15.917 17.539 10.542 L 17.495 5.167 14.414 5.167 L 11.333 5.167 11.333 17.667 M97.415 6.875 C 96.969 7.815,96.140 9.558,95.574 10.750 C 95.007 11.942,94.298 13.442,93.999 14.083 C 93.699 14.725,93.062 16.075,92.582 17.083 C 92.103 18.092,91.371 19.629,90.957 20.500 C 90.106 22.289,89.029 24.565,87.901 26.958 C 87.480 27.852,86.958 28.940,86.741 29.375 L 86.347 30.167 89.842 30.167 L 93.337 30.167 93.928 28.875 C 94.254 28.165,94.793 27.002,95.127 26.292 L 95.734 25.000 101.178 25.000 L 106.621 25.000 107.087 26.042 C 108.419 29.019,108.685 29.604,108.813 29.833 C 108.929 30.041,109.549 30.091,112.466 30.128 L 115.979 30.173 114.892 27.878 C 114.294 26.616,113.500 24.946,113.127 24.167 C 111.053 19.828,110.415 18.486,109.999 17.583 C 109.746 17.033,109.163 15.796,108.705 14.833 C 107.804 12.944,106.419 10.028,105.003 7.042 L 104.115 5.167 101.171 5.167 L 98.227 5.167 97.415 6.875 M118.551 5.490 C 117.005 6.047,115.915 7.163,115.516 8.599 C 115.213 9.689,115.270 25.891,115.580 26.935 C 115.880 27.945,116.763 29.013,117.806 29.626 L 118.583 30.083 127.333 30.083 C 137.137 30.083,136.440 30.166,137.889 28.836 C 138.890 27.918,139.215 27.140,139.300 25.458 L 139.374 24.000 136.270 24.000 C 133.525 24.000,133.167 24.031,133.167 24.269 C 133.167 24.770,132.432 25.848,131.840 26.217 C 131.293 26.557,131.009 26.587,127.919 26.638 C 121.301 26.747,121.502 27.028,121.501 17.666 C 121.500 8.562,121.362 8.799,126.691 8.696 C 131.266 8.608,132.699 9.085,133.081 10.824 L 133.193 11.333 136.263 11.333 L 139.333 11.333 139.333 10.125 C 139.333 7.919,138.196 6.256,136.160 5.482 C 134.896 5.002,119.889 5.009,118.551 5.490 M79.235 9.084 C 80.758 9.861,80.824 10.218,80.829 17.617 C 80.836 27.144,81.179 26.722,73.500 26.633 L 69.250 26.583 69.207 17.833 C 69.183 13.021,69.201 8.984,69.248 8.863 C 69.402 8.459,78.402 8.658,79.235 9.084 M102.343 15.417 C 103.946 18.958,104.833 21.038,104.833 21.255 C 104.833 21.522,97.604 21.639,97.444 21.375 C 97.338 21.201,100.612 13.806,101.065 13.195 C 101.239 12.960,101.200 12.892,102.343 15.417 " stroke="none" fill="#fbfafa" fill-rule="evenodd"></path><path id="path1" d="M15.882 1.683 C 9.038 2.293,3.182 7.463,1.741 14.167 C 0.322 20.768,3.071 27.579,8.583 31.122 C 9.042 31.417,9.492 31.716,9.583 31.787 C 10.334 32.370,13.001 33.278,14.833 33.575 C 17.241 33.966,132.259 33.966,134.667 33.575 C 140.371 32.650,146.113 27.865,147.261 23.078 C 147.326 22.806,147.437 22.508,147.508 22.417 C 148.341 21.342,148.274 14.370,147.415 12.723 C 147.280 12.463,147.168 12.159,147.168 12.048 C 147.166 11.655,145.663 8.933,144.939 8.012 C 141.963 4.223,138.081 2.071,133.500 1.671 C 131.163 1.466,18.181 1.478,15.882 1.683 M157.833 17.333 L 157.833 29.833 168.750 29.833 L 179.667 29.833 179.667 28.083 L 179.667 26.333 172.167 26.333 L 164.667 26.333 164.667 23.000 L 164.667 19.667 170.917 19.667 L 177.167 19.667 177.167 17.583 L 177.167 15.500 170.917 15.500 L 164.667 15.500 164.667 12.083 L 164.667 8.667 172.167 8.667 L 179.667 8.667 179.667 6.750 L 179.667 4.833 168.750 4.833 L 157.833 4.833 157.833 17.333 M182.500 17.333 L 182.500 29.833 192.667 29.833 L 202.833 29.833 202.833 28.083 L 202.833 26.333 195.917 26.333 L 189.000 26.333 189.000 15.583 L 189.000 4.833 185.750 4.833 L 182.500 4.833 182.500 17.333 M204.000 17.333 L 204.000 29.833 215.000 29.833 L 226.000 29.833 226.000 28.083 L 226.000 26.333 218.417 26.333 L 210.833 26.333 210.833 23.000 L 210.833 19.667 217.083 19.667 L 223.333 19.667 223.333 17.583 L 223.333 15.500 217.083 15.500 L 210.833 15.500 210.833 12.083 L 210.833 8.667 218.417 8.667 L 226.000 8.667 226.000 6.750 L 226.000 4.833 215.000 4.833 L 204.000 4.833 204.000 17.333 M231.933 4.952 C 231.667 4.993,231.343 5.133,231.213 5.264 C 231.083 5.394,230.873 5.500,230.746 5.500 C 230.620 5.500,230.457 5.594,230.383 5.709 C 230.310 5.823,230.063 6.016,229.833 6.137 C 229.390 6.371,228.500 7.634,228.500 8.030 C 228.500 8.160,228.406 8.360,228.292 8.475 C 228.000 8.767,227.987 26.286,228.278 26.466 C 228.386 26.532,228.525 26.791,228.588 27.042 C 228.687 27.436,229.776 28.684,230.540 29.278 C 231.178 29.775,232.226 29.831,240.750 29.831 C 249.092 29.831,250.667 29.751,250.667 29.325 C 250.667 29.238,250.779 29.167,250.915 29.167 C 251.052 29.167,251.258 29.017,251.372 28.833 C 251.487 28.650,251.670 28.500,251.779 28.500 C 251.888 28.500,252.023 28.357,252.078 28.182 C 252.134 28.007,252.282 27.825,252.407 27.777 C 252.533 27.729,252.689 27.440,252.755 27.136 C 252.821 26.832,252.960 26.530,253.063 26.465 C 253.180 26.390,253.272 25.539,253.308 24.173 L 253.367 22.000 250.017 22.000 L 246.667 22.000 246.667 23.083 C 246.667 23.694,246.594 24.167,246.500 24.167 C 246.408 24.167,246.333 24.298,246.333 24.459 C 246.333 24.620,246.095 24.976,245.804 25.251 L 245.276 25.750 241.179 25.801 C 234.435 25.886,235.000 26.660,235.000 17.330 C 235.000 10.082,235.021 9.883,235.810 9.477 C 236.052 9.352,236.354 9.152,236.480 9.031 C 236.876 8.656,245.137 8.821,245.354 9.208 C 245.443 9.369,245.611 9.500,245.727 9.500 C 245.843 9.500,246.041 9.762,246.167 10.083 C 246.293 10.404,246.457 10.667,246.531 10.667 C 246.606 10.667,246.667 11.267,246.667 12.000 L 246.667 13.333 250.018 13.333 L 253.370 13.333 253.309 10.826 C 253.272 9.333,253.177 8.272,253.073 8.201 C 252.976 8.136,252.793 7.824,252.664 7.507 C 252.365 6.768,251.398 5.802,250.660 5.502 C 250.343 5.374,250.030 5.190,249.964 5.093 C 249.847 4.918,233.005 4.787,231.933 4.952 M254.667 6.750 L 254.667 8.667 258.583 8.667 L 262.500 8.667 262.500 19.250 L 262.500 29.833 265.750 29.833 L 269.000 29.833 269.000 19.250 L 269.000 8.667 272.917 8.667 L 276.833 8.667 276.833 6.750 L 276.833 4.833 265.750 4.833 L 254.667 4.833 254.667 6.750 M278.500 17.326 L 278.500 29.833 282.125 29.833 L 285.750 29.834 285.702 24.500 L 285.653 19.167 287.118 19.174 L 288.583 19.181 289.208 19.992 C 289.552 20.438,289.833 20.847,289.833 20.901 C 289.833 20.956,289.951 21.131,290.095 21.292 C 290.741 22.010,291.166 22.598,291.166 22.774 C 291.167 22.879,291.279 23.008,291.417 23.060 C 291.554 23.113,291.667 23.268,291.667 23.406 C 291.667 23.543,291.817 23.735,292.000 23.833 C 292.183 23.931,292.333 24.118,292.333 24.248 C 292.333 24.377,292.435 24.543,292.559 24.617 C 292.683 24.690,292.881 24.933,292.998 25.156 C 293.222 25.583,293.394 25.815,293.875 26.345 C 294.035 26.522,294.167 26.723,294.167 26.792 C 294.167 26.911,294.673 27.579,295.238 28.208 C 295.382 28.369,295.500 28.543,295.500 28.594 C 295.500 28.646,295.696 28.946,295.936 29.261 L 296.373 29.833 299.395 29.832 C 302.721 29.830,304.167 29.713,304.167 29.444 C 304.167 29.216,303.314 27.957,303.042 27.783 C 302.927 27.710,302.833 27.544,302.833 27.414 C 302.833 27.285,302.683 27.098,302.500 27.000 C 302.317 26.902,302.167 26.709,302.167 26.572 C 302.167 26.435,302.061 26.282,301.932 26.233 C 301.803 26.183,301.608 25.928,301.500 25.667 C 301.392 25.405,301.197 25.150,301.068 25.101 C 300.939 25.051,300.833 24.899,300.833 24.764 C 300.833 24.628,300.740 24.457,300.625 24.383 C 300.510 24.310,300.321 24.100,300.204 23.917 C 300.088 23.733,299.837 23.340,299.646 23.042 C 299.456 22.744,299.233 22.500,299.150 22.500 C 299.068 22.500,299.000 22.388,299.000 22.251 C 299.000 22.115,298.850 21.909,298.667 21.795 C 298.483 21.680,298.331 21.511,298.329 21.418 C 298.326 21.326,297.984 20.800,297.569 20.250 L 296.813 19.250 298.272 19.126 C 299.075 19.058,299.807 18.926,299.899 18.834 C 299.991 18.742,300.173 18.667,300.303 18.667 C 300.699 18.667,301.963 17.777,302.196 17.333 C 302.317 17.104,302.510 16.857,302.625 16.783 C 302.739 16.710,302.833 16.547,302.833 16.420 C 302.833 16.294,302.965 16.059,303.125 15.899 C 303.472 15.552,303.578 8.430,303.241 8.202 C 303.144 8.137,302.958 7.821,302.828 7.500 C 302.493 6.673,301.288 5.577,300.500 5.384 C 300.271 5.328,300.030 5.200,299.964 5.099 C 299.881 4.971,296.679 4.902,289.173 4.868 L 278.500 4.819 278.500 17.326 M310.083 4.980 C 308.628 5.499,307.167 6.562,307.167 7.103 C 307.167 7.230,307.095 7.333,307.007 7.333 C 306.919 7.333,306.762 7.652,306.658 8.042 C 306.554 8.431,306.401 8.880,306.318 9.039 C 306.117 9.424,306.118 25.833,306.319 25.833 C 306.402 25.833,306.520 26.124,306.580 26.480 C 306.714 27.274,307.493 28.296,308.699 29.262 C 309.362 29.793,310.090 29.833,318.888 29.833 C 327.528 29.833,328.833 29.763,328.833 29.300 C 328.833 29.227,328.927 29.165,329.042 29.163 C 329.373 29.158,330.600 27.821,331.027 27.000 L 331.417 26.250 331.417 17.333 L 331.417 8.417 330.970 7.623 C 330.416 6.637,329.574 5.805,328.823 5.501 C 328.508 5.373,328.197 5.190,328.131 5.093 C 327.995 4.891,310.638 4.782,310.083 4.980 M335.167 17.333 L 335.167 29.833 338.583 29.833 L 342.000 29.833 342.000 22.917 C 342.000 16.376,342.076 15.257,342.449 16.292 C 342.507 16.452,342.657 16.696,342.782 16.833 C 343.324 17.427,343.833 18.093,343.833 18.208 C 343.833 18.277,343.965 18.472,344.125 18.641 C 344.285 18.811,344.567 19.162,344.750 19.422 C 344.933 19.682,345.252 20.098,345.458 20.347 C 345.665 20.595,345.833 20.844,345.833 20.899 C 345.833 20.955,345.965 21.139,346.125 21.308 C 346.285 21.477,346.567 21.829,346.750 22.089 C 346.933 22.349,347.271 22.792,347.500 23.073 C 347.729 23.354,347.991 23.682,348.083 23.804 C 348.175 23.925,348.381 24.169,348.542 24.345 C 348.702 24.522,348.833 24.712,348.833 24.768 C 348.833 24.873,349.486 25.723,349.918 26.181 C 350.055 26.326,350.167 26.529,350.167 26.633 C 350.167 26.737,350.317 26.902,350.500 27.000 C 350.683 27.098,350.833 27.291,350.833 27.428 C 350.833 27.565,350.939 27.718,351.068 27.767 C 351.197 27.817,351.392 28.072,351.500 28.333 C 351.608 28.595,351.803 28.850,351.932 28.899 C 352.061 28.949,352.167 29.102,352.167 29.239 C 352.167 29.744,352.806 29.833,356.406 29.833 L 360.000 29.833 360.000 17.333 L 360.000 4.833 356.750 4.833 L 353.500 4.833 353.481 12.292 C 353.470 16.394,353.427 19.619,353.385 19.458 C 353.343 19.298,353.238 19.167,353.150 19.167 C 353.063 19.167,352.920 18.979,352.833 18.750 C 352.746 18.521,352.598 18.333,352.504 18.333 C 352.410 18.333,352.333 18.240,352.333 18.125 C 352.333 18.010,352.146 17.699,351.916 17.432 C 351.687 17.166,351.500 16.892,351.500 16.823 C 351.500 16.754,351.256 16.404,350.958 16.045 C 350.660 15.686,350.267 15.180,350.083 14.921 C 349.900 14.661,349.619 14.311,349.458 14.141 C 349.298 13.972,349.167 13.763,349.167 13.676 C 349.167 13.590,349.035 13.421,348.875 13.301 C 348.715 13.181,348.471 12.861,348.333 12.588 C 348.196 12.316,347.984 11.979,347.863 11.838 C 347.254 11.134,346.834 10.571,346.834 10.458 C 346.833 10.390,346.702 10.189,346.542 10.012 C 346.145 9.575,345.999 9.383,345.328 8.417 C 345.010 7.958,344.656 7.523,344.542 7.450 C 344.427 7.377,344.333 7.206,344.333 7.070 C 344.333 6.934,344.221 6.780,344.083 6.727 C 343.946 6.674,343.833 6.559,343.833 6.471 C 343.833 6.383,343.646 6.065,343.417 5.765 C 343.188 5.464,343.000 5.132,343.000 5.026 C 343.000 4.886,341.935 4.833,339.083 4.833 L 335.167 4.833 335.167 17.333 M364.667 17.330 L 364.667 29.833 368.084 29.833 L 371.502 29.833 371.459 17.375 L 371.417 4.917 368.042 4.872 L 364.667 4.826 364.667 17.330 M378.933 4.952 C 378.667 4.993,378.343 5.133,378.213 5.264 C 378.083 5.394,377.873 5.500,377.746 5.500 C 377.620 5.500,377.457 5.594,377.383 5.709 C 377.310 5.823,377.044 6.024,376.792 6.153 C 376.540 6.283,376.333 6.460,376.333 6.546 C 376.333 6.632,376.146 6.925,375.917 7.197 C 375.688 7.469,375.500 7.821,375.500 7.979 C 375.500 8.137,375.406 8.360,375.292 8.475 C 375.006 8.760,374.986 26.117,375.271 26.298 C 375.374 26.363,375.509 26.653,375.572 26.943 C 375.670 27.396,376.679 28.590,377.545 29.278 C 378.170 29.775,379.222 29.831,387.750 29.828 C 395.989 29.826,397.669 29.744,397.803 29.342 C 397.835 29.246,397.952 29.167,398.062 29.167 C 398.396 29.167,399.511 28.015,399.764 27.409 C 399.931 27.010,400.000 26.135,400.000 24.422 L 400.000 22.000 396.833 22.000 L 393.667 22.000 393.667 23.167 C 393.667 23.833,393.595 24.333,393.500 24.333 C 393.408 24.333,393.333 24.432,393.333 24.552 C 393.333 24.673,393.103 24.991,392.822 25.260 L 392.311 25.750 387.768 25.750 L 383.224 25.750 382.654 25.180 L 382.083 24.609 382.036 17.602 C 381.986 10.115,382.007 9.890,382.803 9.481 C 383.049 9.354,383.303 9.175,383.369 9.084 C 383.443 8.980,385.107 8.917,387.789 8.917 C 392.326 8.917,392.166 8.893,392.970 9.696 C 393.616 10.343,393.667 10.502,393.667 11.910 L 393.667 13.333 396.833 13.333 L 400.000 13.333 400.000 10.575 C 400.000 7.868,399.820 6.833,399.348 6.833 C 399.270 6.833,399.166 6.684,399.119 6.501 C 399.071 6.318,398.893 6.117,398.724 6.055 C 398.555 5.993,398.361 5.851,398.294 5.740 C 398.226 5.628,397.964 5.485,397.712 5.422 C 397.460 5.359,397.199 5.219,397.133 5.112 C 397.014 4.919,380.099 4.770,378.933 4.952 M17.794 10.375 L 17.838 15.667 23.333 15.667 L 28.829 15.667 28.873 10.375 L 28.917 5.083 35.833 5.040 L 42.750 4.996 43.500 6.123 C 43.913 6.743,44.289 7.287,44.337 7.333 C 44.384 7.379,45.381 8.842,46.552 10.583 C 48.988 14.209,49.138 14.418,49.233 14.321 C 49.271 14.282,50.110 13.050,51.098 11.583 C 52.086 10.117,53.489 8.035,54.216 6.958 L 55.538 5.000 69.310 5.002 C 84.180 5.005,83.808 4.984,85.068 5.882 C 85.818 6.416,86.080 6.709,86.608 7.608 L 87.083 8.417 87.083 17.667 L 87.083 26.917 86.540 27.856 C 85.968 28.845,85.404 29.359,84.167 30.018 L 83.417 30.417 73.425 30.468 C 67.929 30.496,63.261 30.476,63.051 30.423 L 62.669 30.328 62.626 18.321 L 62.583 6.315 61.750 7.500 C 61.292 8.152,60.804 8.831,60.667 9.009 C 60.529 9.187,60.079 9.824,59.667 10.425 C 59.254 11.025,58.654 11.886,58.333 12.337 C 58.012 12.789,57.300 13.804,56.750 14.594 C 56.200 15.383,55.469 16.396,55.125 16.843 C 54.781 17.291,54.500 17.701,54.500 17.754 C 54.500 17.807,54.089 18.407,53.586 19.087 L 52.672 20.323 52.627 25.370 L 52.583 30.417 49.167 30.417 L 45.750 30.417 45.667 25.333 L 45.583 20.250 45.000 19.469 C 44.679 19.039,43.967 18.045,43.417 17.260 C 42.867 16.475,41.967 15.197,41.417 14.421 C 40.867 13.646,40.154 12.632,39.833 12.170 C 39.512 11.707,38.800 10.695,38.250 9.920 C 37.700 9.145,36.987 8.131,36.667 7.667 C 36.346 7.202,35.992 6.694,35.880 6.536 C 35.720 6.310,35.676 8.754,35.672 18.175 C 35.668 27.222,35.618 30.148,35.467 30.300 C 35.326 30.441,34.374 30.500,32.250 30.500 C 30.126 30.500,29.174 30.441,29.033 30.300 C 28.886 30.153,28.833 28.719,28.833 24.883 L 28.833 19.667 23.333 19.667 L 17.833 19.667 17.833 24.896 C 17.833 29.140,17.790 30.162,17.603 30.317 C 17.444 30.449,16.429 30.494,14.312 30.462 L 11.250 30.417 11.207 17.705 L 11.165 4.993 14.457 5.038 L 17.750 5.083 17.794 10.375 M105.033 6.626 C 105.464 7.519,106.185 9.037,106.635 10.000 C 107.086 10.963,107.849 12.575,108.330 13.583 C 108.812 14.592,109.507 16.054,109.875 16.833 C 110.244 17.612,110.940 19.075,111.422 20.083 C 112.801 22.967,113.748 24.973,114.411 26.417 C 114.748 27.150,115.285 28.266,115.605 28.897 C 116.457 30.582,116.593 30.514,112.462 30.462 L 108.917 30.417 108.308 29.167 C 107.489 27.484,106.898 26.163,106.758 25.706 L 106.643 25.329 101.214 25.373 C 96.594 25.410,95.766 25.454,95.647 25.667 C 95.571 25.804,95.225 26.553,94.879 27.331 C 94.533 28.109,94.063 29.121,93.833 29.581 L 93.417 30.417 89.928 30.462 C 87.922 30.488,86.374 30.441,86.285 30.351 C 86.122 30.189,86.214 29.971,88.081 26.083 C 88.653 24.892,89.313 23.504,89.546 23.000 C 90.240 21.501,91.447 18.942,92.440 16.864 C 93.937 13.733,94.922 11.655,95.415 10.583 C 96.465 8.304,97.882 5.403,98.039 5.208 C 98.163 5.055,99.012 5.000,101.229 5.001 L 104.250 5.001 105.033 6.626 M136.726 5.482 C 138.453 6.332,139.425 7.859,139.604 10.005 C 139.736 11.588,139.994 11.460,136.368 11.600 C 133.075 11.727,132.839 11.678,132.827 10.855 C 132.807 9.364,131.728 9.000,127.333 9.000 C 123.367 9.000,123.151 9.040,122.333 9.914 L 121.917 10.360 121.867 17.222 C 121.811 24.879,121.816 24.945,122.511 25.706 L 123.008 26.250 127.096 26.300 C 131.969 26.360,132.664 26.131,132.861 24.402 L 132.917 23.917 136.250 23.917 L 139.583 23.917 139.546 25.302 C 139.485 27.559,138.382 29.207,136.339 30.093 C 135.635 30.399,135.141 30.417,127.333 30.417 C 119.526 30.417,119.032 30.399,118.328 30.093 C 117.255 29.628,116.273 28.792,115.726 27.878 L 115.250 27.083 115.250 17.750 C 115.250 7.070,115.150 7.795,116.826 6.289 C 118.253 5.005,117.998 5.035,127.500 5.060 L 135.917 5.083 136.726 5.482 M294.833 8.500 C 294.833 8.592,294.942 8.667,295.075 8.667 C 296.252 8.667,296.833 9.686,296.833 11.750 C 296.833 13.814,296.252 14.833,295.075 14.833 C 294.942 14.833,294.833 14.908,294.833 15.000 C 294.833 15.107,293.222 15.167,290.333 15.167 L 285.833 15.167 285.833 11.750 L 285.833 8.333 290.333 8.333 C 293.222 8.333,294.833 8.393,294.833 8.500 M323.757 9.449 C 324.028 9.742,324.362 10.115,324.500 10.278 C 324.803 10.639,324.883 24.251,324.583 24.464 C 324.491 24.530,324.312 24.785,324.186 25.031 C 323.790 25.799,323.401 25.853,318.629 25.800 L 314.198 25.750 313.774 25.291 C 313.058 24.519,313.002 23.944,313.001 17.416 C 313.000 8.397,312.675 8.845,319.174 8.889 L 323.264 8.917 323.757 9.449 M69.333 17.674 L 69.333 26.348 74.208 26.299 C 81.182 26.229,80.668 26.921,80.664 17.611 C 80.660 8.441,81.088 9.000,74.059 9.000 L 69.333 9.000 69.333 17.674 M100.458 14.875 C 100.128 15.631,99.548 16.925,99.169 17.750 C 98.131 20.003,98.036 20.217,97.848 20.711 L 97.675 21.167 101.162 21.167 L 104.650 21.167 104.396 20.542 C 104.256 20.198,103.997 19.598,103.821 19.208 C 103.644 18.819,103.358 18.181,103.185 17.792 C 103.012 17.402,102.633 16.567,102.342 15.937 C 102.051 15.306,101.697 14.500,101.555 14.145 C 101.203 13.263,101.141 13.304,100.458 14.875 " stroke="none" fill="#e40414" fill-rule="evenodd"></path><path id="path2" d="M16.042 1.619 C 16.294 1.658,16.706 1.658,16.958 1.619 C 17.210 1.581,17.004 1.550,16.500 1.550 C 15.996 1.550,15.790 1.581,16.042 1.619 M132.711 1.620 C 132.964 1.658,133.339 1.657,133.544 1.617 C 133.749 1.578,133.542 1.546,133.083 1.548 C 132.625 1.549,132.457 1.581,132.711 1.620 M12.750 2.167 C 12.540 2.257,12.509 2.310,12.667 2.310 C 12.804 2.310,13.067 2.245,13.250 2.167 C 13.460 2.076,13.491 2.023,13.333 2.023 C 13.196 2.023,12.933 2.088,12.750 2.167 M17.629 10.432 L 17.676 15.833 23.333 15.833 L 28.991 15.833 29.037 10.432 C 29.063 7.462,29.027 5.066,28.958 5.109 C 28.890 5.152,28.833 7.544,28.833 10.427 L 28.833 15.667 23.333 15.667 L 17.833 15.667 17.833 10.427 C 17.833 7.544,17.777 5.152,17.708 5.109 C 17.640 5.066,17.604 7.462,17.629 10.432 M82.460 5.118 C 82.668 5.158,82.968 5.156,83.127 5.115 C 83.286 5.073,83.117 5.040,82.750 5.042 C 82.383 5.044,82.253 5.078,82.460 5.118 M119.377 5.120 C 119.631 5.158,120.006 5.157,120.211 5.117 C 120.416 5.078,120.208 5.046,119.750 5.048 C 119.292 5.049,119.124 5.081,119.377 5.120 M35.459 18.208 L 35.417 30.250 32.250 30.250 L 29.083 30.250 29.000 24.917 L 28.917 19.583 23.333 19.583 L 17.750 19.583 17.667 24.917 L 17.583 30.250 14.391 30.250 C 12.635 30.250,11.233 30.306,11.276 30.375 C 11.412 30.595,17.409 30.524,17.633 30.300 C 17.780 30.153,17.833 28.719,17.833 24.883 L 17.833 19.667 23.333 19.667 L 28.833 19.667 28.833 24.883 C 28.833 28.719,28.886 30.153,29.033 30.300 C 29.334 30.601,35.226 30.580,35.477 30.277 C 35.690 30.021,35.837 6.167,35.626 6.167 C 35.558 6.167,35.483 11.585,35.459 18.208 M62.401 6.359 C 62.327 6.478,62.355 6.506,62.473 6.433 C 62.616 6.345,62.676 9.349,62.708 18.366 L 62.752 30.417 62.793 18.292 C 62.831 6.894,62.793 5.725,62.401 6.359 M139.314 8.870 C 139.390 9.333,139.414 9.356,139.466 9.022 C 139.500 8.806,139.460 8.560,139.376 8.476 C 139.283 8.383,139.259 8.539,139.314 8.870 M71.365 8.958 C 72.529 8.986,74.479 8.986,75.698 8.958 C 76.918 8.929,75.967 8.906,73.583 8.906 C 71.200 8.906,70.202 8.929,71.365 8.958 M125.792 8.958 C 126.640 8.988,128.027 8.988,128.875 8.958 C 129.723 8.927,129.029 8.903,127.333 8.903 C 125.638 8.903,124.944 8.927,125.792 8.958 M122.406 9.708 L 121.917 10.250 122.499 9.750 C 122.820 9.475,123.113 9.231,123.152 9.208 C 123.191 9.185,123.149 9.167,123.059 9.167 C 122.969 9.167,122.675 9.410,122.406 9.708 M139.497 10.534 C 139.453 11.057,139.477 11.423,139.552 11.349 C 139.626 11.274,139.662 10.846,139.632 10.398 L 139.578 9.583 139.497 10.534 M121.768 10.597 C 121.622 10.976,121.648 24.545,121.794 24.776 C 121.862 24.882,121.917 21.675,121.917 17.651 C 121.917 13.626,121.906 10.333,121.893 10.333 C 121.880 10.333,121.823 10.452,121.768 10.597 M132.844 11.021 C 132.822 11.571,133.243 11.679,135.191 11.625 L 137.083 11.571 135.120 11.536 C 133.255 11.502,133.148 11.481,133.005 11.125 C 132.903 10.871,132.851 10.838,132.844 11.021 M147.258 12.375 C 147.320 12.581,147.439 12.823,147.523 12.913 C 147.607 13.002,147.591 12.834,147.488 12.538 C 147.277 11.932,147.082 11.795,147.258 12.375 M48.830 14.125 C 49.030 14.537,49.249 14.604,49.433 14.308 C 49.509 14.185,49.478 14.161,49.348 14.241 C 49.229 14.314,49.041 14.238,48.896 14.058 C 48.665 13.770,48.660 13.775,48.830 14.125 M148.042 15.583 C 148.044 15.950,148.078 16.080,148.118 15.873 C 148.158 15.666,148.156 15.366,148.115 15.206 C 148.073 15.047,148.040 15.217,148.042 15.583 M1.375 15.750 C 1.377 16.117,1.411 16.247,1.451 16.040 C 1.491 15.832,1.490 15.532,1.448 15.373 C 1.406 15.214,1.374 15.383,1.375 15.750 M148.205 16.833 C 148.205 17.154,148.240 17.285,148.282 17.125 C 148.323 16.965,148.323 16.702,148.282 16.542 C 148.240 16.381,148.205 16.512,148.205 16.833 M1.372 19.667 C 1.372 19.987,1.406 20.119,1.448 19.958 C 1.490 19.798,1.490 19.535,1.448 19.375 C 1.406 19.215,1.372 19.346,1.372 19.667 M148.042 19.750 C 148.044 20.117,148.078 20.247,148.118 20.040 C 148.158 19.832,148.156 19.532,148.115 19.373 C 148.073 19.214,148.040 19.383,148.042 19.750 M104.339 20.386 C 104.336 20.461,104.411 20.667,104.506 20.844 C 104.674 21.158,104.587 21.167,101.178 21.167 C 97.919 21.167,97.684 21.146,97.771 20.875 C 97.850 20.629,97.837 20.622,97.685 20.833 C 97.586 20.971,97.504 21.140,97.503 21.208 C 97.501 21.277,99.150 21.333,101.167 21.333 C 103.183 21.333,104.831 21.277,104.827 21.208 C 104.819 21.023,104.346 20.227,104.339 20.386 M132.892 24.087 C 132.837 24.230,132.839 24.394,132.896 24.452 C 132.953 24.509,133.000 24.431,133.000 24.278 C 133.000 24.028,133.327 24.000,136.241 24.000 L 139.483 24.000 139.546 24.792 L 139.609 25.583 139.596 24.750 L 139.583 23.917 136.288 23.871 C 133.425 23.832,132.979 23.860,132.892 24.087 M95.597 25.440 C 95.515 25.656,95.540 25.674,95.719 25.526 C 95.874 25.397,97.648 25.323,101.348 25.292 L 106.750 25.245 101.226 25.206 C 96.236 25.170,95.692 25.193,95.597 25.440 M139.353 26.361 C 139.342 26.514,139.290 26.777,139.237 26.945 C 139.147 27.234,139.151 27.235,139.332 26.953 C 139.437 26.790,139.489 26.527,139.447 26.370 C 139.379 26.112,139.370 26.111,139.353 26.361 M71.625 26.458 C 72.931 26.486,75.069 26.486,76.375 26.458 C 77.681 26.430,76.612 26.407,74.000 26.407 C 71.387 26.407,70.319 26.430,71.625 26.458 M125.532 26.458 C 126.513 26.487,128.163 26.487,129.199 26.458 C 130.235 26.429,129.433 26.404,127.417 26.404 C 125.400 26.404,124.552 26.428,125.532 26.458 M4.667 27.610 C 4.667 27.701,4.873 27.957,5.125 28.179 L 5.583 28.583 5.167 28.083 C 4.938 27.808,4.731 27.552,4.708 27.514 C 4.685 27.476,4.667 27.519,4.667 27.610 M116.000 28.385 C 116.000 28.414,116.244 28.658,116.542 28.927 L 117.083 29.417 116.594 28.875 C 116.138 28.370,116.000 28.257,116.000 28.385 M115.824 29.614 C 116.163 30.316,116.123 30.325,112.542 30.377 L 109.083 30.427 112.581 30.422 C 116.338 30.416,116.540 30.365,115.912 29.580 C 115.654 29.258,115.652 29.258,115.824 29.614 M86.223 29.928 C 86.023 30.448,86.435 30.507,89.928 30.458 L 93.417 30.410 89.856 30.371 C 86.386 30.334,86.297 30.325,86.382 30.000 C 86.485 29.606,86.367 29.552,86.223 29.928 M45.776 30.375 C 45.818 30.444,47.344 30.500,49.167 30.500 C 50.989 30.500,52.515 30.444,52.558 30.375 C 52.600 30.306,51.074 30.250,49.167 30.250 C 47.259 30.250,45.733 30.306,45.776 30.375 M67.792 30.458 C 70.473 30.484,74.860 30.484,77.542 30.458 C 80.223 30.432,78.029 30.411,72.667 30.411 C 67.304 30.411,65.110 30.432,67.792 30.458 M123.542 30.458 C 125.627 30.485,129.040 30.485,131.125 30.458 C 133.210 30.432,131.504 30.410,127.333 30.410 C 123.162 30.410,121.456 30.432,123.542 30.458 M15.208 33.782 C 15.369 33.823,15.631 33.823,15.792 33.782 C 15.952 33.740,15.821 33.705,15.500 33.705 C 15.179 33.705,15.048 33.740,15.208 33.782 M133.708 33.782 C 133.869 33.823,134.131 33.823,134.292 33.782 C 134.452 33.740,134.321 33.705,134.000 33.705 C 133.679 33.705,133.548 33.740,133.708 33.782 M45.861 33.958 C 61.689 33.982,87.639 33.982,103.528 33.958 C 119.417 33.935,106.467 33.916,74.750 33.916 C 43.033 33.916,30.033 33.935,45.861 33.958 " stroke="none" fill="#ec464e" fill-rule="evenodd"></path><path id="path3" d="M16.294 1.451 C 16.501 1.491,16.801 1.490,16.960 1.448 C 17.120 1.406,16.950 1.374,16.583 1.375 C 16.217 1.377,16.086 1.411,16.294 1.451 M132.627 1.451 C 132.834 1.491,133.134 1.490,133.294 1.448 C 133.453 1.406,133.283 1.374,132.917 1.375 C 132.550 1.377,132.420 1.411,132.627 1.451 M5.746 6.375 L 4.583 7.583 5.792 6.421 C 6.914 5.342,7.076 5.167,6.954 5.167 C 6.928 5.167,6.385 5.710,5.746 6.375 M11.248 17.667 L 11.250 30.250 14.417 30.250 L 17.583 30.250 17.587 24.833 L 17.590 19.417 17.543 24.792 L 17.495 30.167 14.415 30.167 L 11.335 30.167 11.291 17.625 L 11.247 5.083 11.248 17.667 M17.580 10.500 L 17.583 15.917 23.239 15.961 C 26.350 15.985,28.953 15.947,29.023 15.877 C 29.093 15.807,26.568 15.771,23.411 15.796 L 17.671 15.842 17.624 10.463 L 17.576 5.083 17.580 10.500 M143.583 6.333 C 144.220 6.975,144.779 7.500,144.824 7.500 C 144.870 7.500,144.387 6.975,143.750 6.333 C 143.113 5.692,142.555 5.167,142.509 5.167 C 142.463 5.167,142.947 5.692,143.583 6.333 M35.333 17.996 L 35.333 30.159 32.208 30.210 L 29.083 30.262 32.250 30.256 L 35.417 30.250 35.459 18.116 C 35.491 9.036,35.550 6.011,35.694 6.100 C 35.812 6.173,35.839 6.145,35.766 6.026 C 35.376 5.395,35.333 6.571,35.333 17.996 M62.833 18.042 L 62.917 30.250 72.667 30.252 L 82.417 30.254 72.708 30.209 L 63.000 30.164 63.000 17.999 C 63.000 11.308,62.944 5.833,62.875 5.833 C 62.806 5.833,62.788 11.327,62.833 18.042 M69.275 8.792 C 69.233 8.860,70.522 8.897,72.141 8.874 C 77.575 8.795,78.114 8.736,73.718 8.701 C 71.317 8.682,69.318 8.723,69.275 8.792 M125.717 8.791 C 126.616 8.821,128.041 8.821,128.884 8.791 C 129.727 8.761,128.992 8.736,127.250 8.736 C 125.508 8.736,124.818 8.761,125.717 8.791 M122.240 9.708 L 121.750 10.250 122.292 9.760 C 122.590 9.491,122.833 9.248,122.833 9.219 C 122.833 9.090,122.696 9.203,122.240 9.708 M115.244 17.750 C 115.244 22.425,115.265 24.361,115.292 22.053 C 115.318 19.745,115.318 15.920,115.292 13.553 C 115.265 11.186,115.244 13.075,115.244 17.750 M139.362 10.458 L 139.333 11.333 136.262 11.333 C 133.660 11.333,133.179 11.295,133.113 11.080 C 133.058 10.903,133.042 10.915,133.061 11.122 C 133.085 11.391,133.363 11.421,136.214 11.462 C 139.707 11.513,139.568 11.562,139.456 10.311 C 139.392 9.592,139.391 9.593,139.362 10.458 M121.576 17.667 C 121.576 21.379,121.598 22.898,121.625 21.042 C 121.652 19.185,121.652 16.148,121.625 14.292 C 121.598 12.435,121.576 13.954,121.576 17.667 M80.742 17.667 C 80.742 21.196,80.764 22.640,80.791 20.875 C 80.818 19.110,80.818 16.223,80.791 14.458 C 80.764 12.694,80.742 14.137,80.742 17.667 M58.167 12.167 C 57.971 12.442,57.848 12.667,57.894 12.667 C 57.940 12.667,58.138 12.442,58.333 12.167 C 58.529 11.892,58.652 11.667,58.606 11.667 C 58.560 11.667,58.362 11.892,58.167 12.167 M1.595 13.595 C 1.534 13.839,1.516 14.071,1.555 14.111 C 1.594 14.150,1.677 13.982,1.738 13.738 C 1.799 13.494,1.817 13.262,1.778 13.223 C 1.739 13.183,1.657 13.351,1.595 13.595 M99.860 15.590 C 99.581 16.203,99.634 16.334,99.936 15.777 C 100.077 15.517,100.162 15.273,100.123 15.235 C 100.085 15.196,99.967 15.357,99.860 15.590 M45.667 25.141 L 45.750 30.250 49.000 30.255 L 52.250 30.261 49.042 30.210 L 45.833 30.160 45.833 25.173 C 45.833 22.430,45.777 20.151,45.708 20.109 C 45.640 20.066,45.621 22.331,45.667 25.141 M90.694 20.757 C 90.414 21.370,90.468 21.501,90.770 20.944 C 90.911 20.683,90.995 20.439,90.957 20.401 C 90.919 20.363,90.800 20.523,90.694 20.757 M97.478 21.378 C 97.549 21.449,99.251 21.486,101.262 21.461 L 104.917 21.416 101.133 21.333 C 99.052 21.287,97.407 21.308,97.478 21.378 M133.019 24.195 C 133.009 24.348,132.957 24.610,132.904 24.778 C 132.813 25.067,132.818 25.068,132.999 24.786 C 133.103 24.623,133.155 24.361,133.114 24.203 C 133.046 23.945,133.037 23.944,133.019 24.195 M139.385 24.917 C 139.386 25.467,139.417 25.672,139.454 25.372 C 139.491 25.072,139.490 24.622,139.452 24.372 C 139.414 24.122,139.384 24.367,139.385 24.917 M98.375 25.125 C 99.910 25.152,102.423 25.152,103.958 25.125 C 105.494 25.097,104.237 25.075,101.167 25.075 C 98.096 25.075,96.840 25.097,98.375 25.125 M86.853 26.361 C 86.842 26.514,86.790 26.777,86.737 26.945 C 86.647 27.234,86.651 27.235,86.832 26.953 C 86.937 26.790,86.989 26.527,86.947 26.370 C 86.879 26.112,86.870 26.111,86.853 26.361 M69.311 26.544 C 69.381 26.615,71.496 26.652,74.011 26.628 L 78.583 26.583 73.883 26.500 C 71.298 26.454,69.240 26.474,69.311 26.544 M125.542 26.624 C 126.527 26.654,128.140 26.654,129.125 26.624 C 130.110 26.595,129.304 26.571,127.333 26.571 C 125.362 26.571,124.556 26.595,125.542 26.624 M116.167 28.385 C 116.167 28.414,116.410 28.658,116.708 28.927 L 117.250 29.417 116.760 28.875 C 116.304 28.370,116.167 28.257,116.167 28.385 M137.906 28.875 L 137.417 29.417 137.958 28.927 C 138.256 28.658,138.500 28.414,138.500 28.385 C 138.500 28.257,138.362 28.370,137.906 28.875 M108.812 30.042 C 109.019 30.305,109.379 30.330,112.562 30.295 L 116.083 30.257 112.596 30.208 C 110.158 30.174,109.030 30.098,108.846 29.955 C 108.614 29.774,108.610 29.784,108.812 30.042 M89.833 30.167 L 86.250 30.260 89.782 30.297 C 91.997 30.320,93.352 30.271,93.417 30.167 C 93.473 30.075,93.496 30.016,93.468 30.037 C 93.440 30.057,91.804 30.115,89.833 30.167 M123.458 30.292 C 125.590 30.318,129.077 30.318,131.208 30.292 C 133.340 30.265,131.596 30.244,127.333 30.244 C 123.071 30.244,121.327 30.265,123.458 30.292 M13.250 33.500 C 13.433 33.579,13.696 33.643,13.833 33.643 C 13.991 33.643,13.960 33.590,13.750 33.500 C 13.567 33.421,13.304 33.357,13.167 33.357 C 13.009 33.357,13.040 33.410,13.250 33.500 " stroke="none" fill="#f4848c" fill-rule="evenodd"></path><path id="path4" d="M45.861 1.458 C 61.689 1.482,87.639 1.482,103.528 1.458 C 119.417 1.435,106.467 1.416,74.750 1.416 C 43.033 1.416,30.033 1.435,45.861 1.458 M12.958 5.124 C 13.806 5.154,15.194 5.154,16.042 5.124 C 16.890 5.094,16.196 5.069,14.500 5.069 C 12.804 5.069,12.110 5.094,12.958 5.124 M29.076 5.210 C 29.031 5.325,29.016 7.744,29.042 10.585 L 29.088 15.750 29.127 10.460 L 29.167 5.170 35.875 5.125 L 42.583 5.079 35.870 5.040 C 30.596 5.009,29.139 5.045,29.076 5.210 M62.304 5.125 C 66.000 5.150,72.000 5.150,75.637 5.125 C 79.274 5.100,76.250 5.079,68.917 5.079 C 61.583 5.079,58.608 5.100,62.304 5.125 M98.109 5.125 C 98.067 5.194,99.443 5.250,101.167 5.250 C 102.891 5.250,104.267 5.194,104.224 5.125 C 104.182 5.056,102.806 5.000,101.167 5.000 C 99.527 5.000,98.152 5.056,98.109 5.125 M124.042 5.125 C 126.035 5.151,129.298 5.151,131.292 5.125 C 133.285 5.098,131.654 5.076,127.667 5.076 C 123.679 5.076,122.048 5.098,124.042 5.125 M69.244 17.667 C 69.244 22.479,69.266 24.448,69.292 22.042 C 69.318 19.635,69.318 15.698,69.292 13.292 C 69.266 10.885,69.244 12.854,69.244 17.667 M87.077 17.583 C 87.077 22.258,87.099 24.195,87.125 21.887 C 87.151 19.578,87.151 15.753,87.125 13.387 C 87.099 11.020,87.077 12.908,87.077 17.583 M1.224 17.750 C 1.224 18.483,1.254 18.763,1.289 18.371 C 1.324 17.979,1.324 17.379,1.288 17.037 C 1.252 16.696,1.223 17.017,1.224 17.750 M29.074 25.000 C 29.074 27.887,29.097 29.069,29.125 27.625 C 29.152 26.181,29.152 23.819,29.125 22.375 C 29.097 20.931,29.074 22.113,29.074 25.000 M52.500 25.367 C 52.454 28.089,52.474 30.260,52.544 30.189 C 52.614 30.119,52.652 27.891,52.627 25.239 L 52.583 20.417 52.500 25.367 M5.826 29.042 C 6.517 29.778,6.667 29.910,6.667 29.785 C 6.667 29.758,6.310 29.402,5.875 28.993 L 5.083 28.250 5.826 29.042 M16.375 33.948 C 16.535 33.990,16.798 33.990,16.958 33.948 C 17.119 33.906,16.987 33.872,16.667 33.872 C 16.346 33.872,16.215 33.906,16.375 33.948 " stroke="none" fill="#ec747c" fill-rule="evenodd"></path></g></svg>